<svg width="14" height="14" viewBox="0 0 14 14" xmlns="http://www.w3.org/2000/svg">
<path d="M5.25008 6.99935C6.37591 6.99935 7.29175 6.08352 7.29175 4.95768C7.29175 3.83185 6.37591 2.91602 5.25008 2.91602C4.12425 2.91602 3.20841 3.83185 3.20841 4.95768C3.20841 6.08352 4.12425 6.99935 5.25008 6.99935ZM5.25008 4.08268C5.73425 4.08268 6.12508 4.47352 6.12508 4.95768C6.12508 5.44185 5.73425 5.83268 5.25008 5.83268C4.76591 5.83268 4.37508 5.44185 4.37508 4.95768C4.37508 4.47352 4.76591 4.08268 5.25008 4.08268ZM5.27925 9.91602H2.78258C3.36008 9.62435 4.35758 9.33268 5.25008 9.33268C5.31425 9.33268 5.38425 9.33852 5.44841 9.33852C5.64675 8.91268 5.99091 8.56268 6.40508 8.28268C5.97925 8.20685 5.57675 8.16602 5.25008 8.16602C3.88508 8.16602 1.16675 8.84852 1.16675 10.2077V11.0827H5.25008V10.2077C5.25008 10.1085 5.26175 10.0093 5.27925 9.91602ZM9.62508 8.45768C8.55175 8.45768 6.41675 9.04685 6.41675 10.2077V11.0827H12.8334V10.2077C12.8334 9.04685 10.6984 8.45768 9.62508 8.45768ZM10.3309 7.39602C10.7742 7.14518 11.0834 6.67268 11.0834 6.12435C11.0834 5.31935 10.4301 4.66602 9.62508 4.66602C8.82008 4.66602 8.16675 5.31935 8.16675 6.12435C8.16675 6.67268 8.47591 7.14518 8.91925 7.39602C9.12925 7.51268 9.36841 7.58268 9.62508 7.58268C9.88175 7.58268 10.1209 7.51268 10.3309 7.39602Z"/>
</svg>
