<svg width="24" height="24" viewBox="0 0 24 24" xmlns="http://www.w3.org/2000/svg">
<path fill-rule="evenodd" clip-rule="evenodd" d="M7 21C7 21.5523 7.44772 22 8 22C8.55228 22 9 21.5523 9 21V8H11C11.5523 8 12 7.55229 12 7C12 6.44772 11.5523 6 11 6H9V3C9 2.44772 8.55228 2 8 2C7.44772 2 7 2.44772 7 3V6H5C4.44772 6 4 6.44772 4 7C4 7.55229 4.44772 8 5 8H7V21ZM16 2C15.4477 2 15 2.44772 15 3V16H13C12.4477 16 12 16.4477 12 17C12 17.5523 12.4477 18 13 18H15V21C15 21.5523 15.4477 22 16 22C16.5523 22 17 21.5523 17 21V18H19C19.5523 18 20 17.5523 20 17C20 16.4477 19.5523 16 19 16H17V3C17 2.44772 16.5523 2 16 2Z" />
</svg>
